<svg width="1024" height="1024" viewBox="0 0 1024 1024" fill="none" xmlns="http://www.w3.org/2000/svg">
<path d="M111.767 537.007L489.242 534.351C491.823 534.35 494.352 533.578 496.547 532.123C498.742 530.668 500.515 528.586 501.668 526.111L524.172 477.895C524.631 476.904 525.351 476.079 526.242 475.52C527.133 474.962 528.157 474.695 529.187 474.752C530.218 474.809 531.211 475.187 532.043 475.841C532.876 476.495 533.512 477.395 533.874 478.431L573.071 590.465C573.427 591.492 574.067 592.377 574.905 593.002C575.744 593.627 576.741 593.963 577.762 593.963C578.784 593.963 579.781 593.627 580.62 593.002C581.458 592.377 582.098 591.492 582.454 590.465L598.702 544.021C599.695 541.182 601.473 538.735 603.798 537.007C606.122 535.279 608.884 534.352 611.712 534.351H874.977" stroke="#68B9A8" stroke-width="18.6583" stroke-linecap="round" stroke-linejoin="round"/>
<path d="M612.887 467.24C617.142 467.24 620.885 466.676 624.114 465.548C627.395 464.42 630.138 462.857 632.342 460.857C634.598 458.807 636.29 456.371 637.418 453.552C638.545 450.732 639.109 447.631 639.109 444.247C639.109 437.224 636.931 431.738 632.573 427.791C628.267 423.844 621.705 421.87 612.887 421.87H595.201V467.24H612.887ZM612.887 410.105C619.859 410.105 625.909 410.925 631.035 412.565C636.213 414.154 640.494 416.436 643.877 419.409C647.261 422.383 649.773 425.971 651.413 430.175C653.105 434.379 653.951 439.069 653.951 444.247C653.951 449.374 653.054 454.065 651.259 458.32C649.465 462.575 646.825 466.24 643.339 469.316C639.904 472.392 635.623 474.801 630.497 476.544C625.422 478.236 619.552 479.082 612.887 479.082H595.201V520.299H580.359V410.105H612.887ZM709.311 485.234C703.006 485.439 697.623 485.952 693.163 486.772C688.754 487.541 685.14 488.566 682.32 489.848C679.552 491.129 677.527 492.642 676.245 494.385C675.015 496.128 674.4 498.076 674.4 500.229C674.4 502.28 674.733 504.048 675.399 505.535C676.066 507.022 676.963 508.252 678.091 509.226C679.27 510.149 680.628 510.841 682.166 511.302C683.755 511.712 685.447 511.917 687.242 511.917C689.651 511.917 691.855 511.687 693.855 511.225C695.854 510.713 697.725 509.995 699.468 509.072C701.263 508.149 702.954 507.047 704.544 505.766C706.184 504.484 707.773 503.023 709.311 501.382V485.234ZM665.095 453.398C669.401 449.246 674.041 446.144 679.013 444.093C683.986 442.043 689.497 441.018 695.547 441.018C699.904 441.018 703.775 441.735 707.158 443.171C710.542 444.606 713.387 446.605 715.694 449.169C718.001 451.732 719.744 454.834 720.923 458.473C722.102 462.113 722.692 466.112 722.692 470.469V520.299H716.617C715.284 520.299 714.258 520.094 713.541 519.684C712.823 519.223 712.259 518.351 711.849 517.07L710.311 509.687C708.26 511.584 706.261 513.276 704.313 514.763C702.365 516.198 700.314 517.429 698.161 518.454C696.008 519.428 693.701 520.171 691.24 520.684C688.831 521.248 686.139 521.53 683.166 521.53C680.141 521.53 677.296 521.12 674.63 520.299C671.964 519.428 669.632 518.146 667.633 516.454C665.684 514.763 664.121 512.635 662.942 510.072C661.814 507.457 661.25 504.381 661.25 500.844C661.25 497.768 662.096 494.82 663.788 492.001C665.479 489.13 668.222 486.592 672.016 484.388C675.809 482.184 680.756 480.389 686.857 479.005C692.958 477.57 700.442 476.749 709.311 476.544V470.469C709.311 464.42 708.004 459.858 705.389 456.782C702.775 453.654 698.956 452.091 693.932 452.091C690.548 452.091 687.703 452.527 685.396 453.398C683.14 454.218 681.167 455.167 679.475 456.243C677.834 457.269 676.399 458.217 675.169 459.089C673.989 459.909 672.81 460.319 671.631 460.319C670.708 460.319 669.914 460.088 669.247 459.627C668.581 459.114 668.017 458.499 667.556 457.781L665.095 453.398ZM788.912 455.244C788.296 456.371 787.348 456.935 786.066 456.935C785.297 456.935 784.426 456.653 783.452 456.09C782.478 455.526 781.273 454.91 779.838 454.244C778.453 453.526 776.787 452.885 774.839 452.322C772.891 451.706 770.584 451.399 767.918 451.399C765.611 451.399 763.535 451.706 761.69 452.322C759.844 452.885 758.255 453.68 756.922 454.705C755.64 455.731 754.641 456.935 753.923 458.32C753.256 459.652 752.923 461.114 752.923 462.703C752.923 464.702 753.487 466.368 754.615 467.701C755.794 469.034 757.332 470.187 759.229 471.162C761.126 472.136 763.279 473.007 765.688 473.776C768.098 474.494 770.559 475.288 773.071 476.16C775.634 476.98 778.12 477.903 780.53 478.928C782.939 479.954 785.092 481.235 786.989 482.773C788.886 484.311 790.398 486.208 791.526 488.464C792.705 490.668 793.295 493.334 793.295 496.461C793.295 500.05 792.654 503.382 791.372 506.458C790.091 509.482 788.194 512.123 785.682 514.378C783.17 516.583 780.094 518.326 776.454 519.607C772.814 520.889 768.61 521.53 763.843 521.53C758.409 521.53 753.487 520.658 749.078 518.915C744.67 517.121 740.927 514.84 737.851 512.071L741.081 506.842C741.491 506.176 741.978 505.663 742.542 505.304C743.106 504.945 743.824 504.766 744.695 504.766C745.618 504.766 746.592 505.125 747.617 505.843C748.643 506.56 749.873 507.355 751.308 508.226C752.795 509.098 754.589 509.893 756.691 510.61C758.793 511.328 761.408 511.687 764.535 511.687C767.201 511.687 769.533 511.354 771.533 510.687C773.532 509.969 775.198 509.021 776.531 507.842C777.864 506.663 778.838 505.304 779.453 503.766C780.12 502.228 780.453 500.588 780.453 498.845C780.453 496.692 779.863 494.923 778.684 493.539C777.556 492.103 776.044 490.899 774.147 489.925C772.25 488.899 770.072 488.028 767.611 487.31C765.201 486.541 762.715 485.747 760.152 484.926C757.64 484.106 755.153 483.183 752.693 482.158C750.283 481.081 748.13 479.748 746.233 478.159C744.336 476.57 742.798 474.622 741.619 472.315C740.491 469.957 739.927 467.112 739.927 463.779C739.927 460.806 740.543 457.961 741.773 455.244C743.003 452.475 744.798 450.066 747.156 448.015C749.514 445.913 752.411 444.247 755.845 443.017C759.28 441.786 763.202 441.171 767.611 441.171C772.737 441.171 777.326 441.992 781.376 443.632C785.477 445.221 789.014 447.426 791.987 450.245L788.912 455.244ZM855.446 455.244C854.831 456.371 853.883 456.935 852.601 456.935C851.832 456.935 850.961 456.653 849.987 456.09C849.013 455.526 847.808 454.91 846.372 454.244C844.988 453.526 843.322 452.885 841.374 452.322C839.426 451.706 837.119 451.399 834.453 451.399C832.146 451.399 830.07 451.706 828.224 452.322C826.379 452.885 824.79 453.68 823.457 454.705C822.175 455.731 821.175 456.935 820.458 458.32C819.791 459.652 819.458 461.114 819.458 462.703C819.458 464.702 820.022 466.368 821.15 467.701C822.329 469.034 823.867 470.187 825.764 471.162C827.661 472.136 829.814 473.007 832.223 473.776C834.633 474.494 837.093 475.288 839.605 476.16C842.169 476.98 844.655 477.903 847.064 478.928C849.474 479.954 851.627 481.235 853.524 482.773C855.421 484.311 856.933 486.208 858.061 488.464C859.24 490.668 859.83 493.334 859.83 496.461C859.83 500.05 859.189 503.382 857.907 506.458C856.625 509.482 854.729 512.123 852.217 514.378C849.705 516.583 846.629 518.326 842.989 519.607C839.349 520.889 835.145 521.53 830.378 521.53C824.943 521.53 820.022 520.658 815.613 518.915C811.204 517.121 807.462 514.84 804.386 512.071L807.616 506.842C808.026 506.176 808.513 505.663 809.077 505.304C809.641 504.945 810.358 504.766 811.23 504.766C812.153 504.766 813.127 505.125 814.152 505.843C815.177 506.56 816.408 507.355 817.843 508.226C819.33 509.098 821.124 509.893 823.226 510.61C825.328 511.328 827.942 511.687 831.07 511.687C833.735 511.687 836.068 511.354 838.067 510.687C840.067 509.969 841.733 509.021 843.066 507.842C844.399 506.663 845.373 505.304 845.988 503.766C846.654 502.228 846.988 500.588 846.988 498.845C846.988 496.692 846.398 494.923 845.219 493.539C844.091 492.103 842.579 490.899 840.682 489.925C838.785 488.899 836.606 488.028 834.146 487.31C831.736 486.541 829.25 485.747 826.686 484.926C824.174 484.106 821.688 483.183 819.227 482.158C816.818 481.081 814.665 479.748 812.768 478.159C810.871 476.57 809.333 474.622 808.154 472.315C807.026 469.957 806.462 467.112 806.462 463.779C806.462 460.806 807.077 457.961 808.308 455.244C809.538 452.475 811.332 450.066 813.691 448.015C816.049 445.913 818.945 444.247 822.38 443.017C825.815 441.786 829.737 441.171 834.146 441.171C839.272 441.171 843.86 441.992 847.91 443.632C852.012 445.221 855.549 447.426 858.522 450.245L855.446 455.244Z" fill="#103B66"/>
<path d="M190.687 494.39C191.838 494.39 192.859 494.835 193.749 495.725L202.074 504.757C197.467 510.464 191.786 514.835 185.032 517.872C178.331 520.909 170.268 522.427 160.844 522.427C152.414 522.427 144.823 520.987 138.069 518.108C131.367 515.228 125.634 511.223 120.87 506.092C116.105 500.961 112.44 494.835 109.875 487.715C107.362 480.594 106.105 472.82 106.105 464.39C106.105 455.856 107.467 448.055 110.189 440.987C112.912 433.867 116.734 427.741 121.655 422.61C126.629 417.479 132.545 413.5 139.404 410.673C146.262 407.793 153.854 406.354 162.179 406.354C170.451 406.354 177.781 407.715 184.168 410.437C190.608 413.16 196.079 416.72 200.582 421.118L193.514 430.935C193.095 431.563 192.545 432.113 191.865 432.584C191.236 433.055 190.346 433.291 189.194 433.291C188.409 433.291 187.598 433.081 186.76 432.662C185.922 432.191 185.006 431.642 184.011 431.013C183.016 430.333 181.865 429.6 180.556 428.814C179.247 428.029 177.728 427.322 176.001 426.694C174.273 426.013 172.257 425.464 169.954 425.045C167.702 424.573 165.084 424.338 162.1 424.338C157.022 424.338 152.362 425.254 148.121 427.087C143.933 428.867 140.32 431.484 137.283 434.94C134.247 438.343 131.891 442.532 130.215 447.505C128.54 452.427 127.702 458.055 127.702 464.39C127.702 470.778 128.592 476.458 130.372 481.432C132.205 486.406 134.666 490.595 137.755 493.998C140.844 497.401 144.482 500.019 148.671 501.851C152.859 503.631 157.362 504.521 162.179 504.521C165.058 504.521 167.65 504.364 169.954 504.05C172.31 503.736 174.456 503.239 176.393 502.558C178.383 501.877 180.242 501.013 181.969 499.966C183.749 498.867 185.503 497.532 187.231 495.961C187.755 495.49 188.304 495.123 188.88 494.862C189.456 494.547 190.058 494.39 190.687 494.39ZM233.116 404.469V521.17H213.718V404.469H233.116ZM272.547 440.594V521.17H253.071V440.594H272.547ZM275.218 417.113C275.218 418.788 274.877 420.359 274.197 421.825C273.516 423.291 272.6 424.573 271.448 425.673C270.348 426.772 269.04 427.662 267.521 428.343C266.003 428.971 264.38 429.286 262.652 429.286C260.977 429.286 259.38 428.971 257.862 428.343C256.396 427.662 255.113 426.772 254.013 425.673C252.914 424.573 252.024 423.291 251.343 421.825C250.715 420.359 250.401 418.788 250.401 417.113C250.401 415.385 250.715 413.762 251.343 412.244C252.024 410.725 252.914 409.416 254.013 408.317C255.113 407.217 256.396 406.354 257.862 405.725C259.38 405.045 260.977 404.704 262.652 404.704C264.38 404.704 266.003 405.045 267.521 405.725C269.04 406.354 270.348 407.217 271.448 408.317C272.6 409.416 273.516 410.725 274.197 412.244C274.877 413.762 275.218 415.385 275.218 417.113ZM310.465 450.49C312.088 448.867 313.789 447.375 315.569 446.013C317.402 444.6 319.313 443.422 321.302 442.479C323.344 441.484 325.517 440.725 327.821 440.202C330.124 439.626 332.638 439.338 335.36 439.338C339.758 439.338 343.658 440.097 347.062 441.615C350.465 443.081 353.292 445.176 355.543 447.898C357.847 450.568 359.575 453.788 360.727 457.558C361.931 461.275 362.533 465.385 362.533 469.888V521.17H343.135V469.888C343.135 464.966 342.009 461.17 339.758 458.5C337.507 455.778 334.077 454.416 329.47 454.416C326.119 454.416 322.978 455.176 320.046 456.694C317.114 458.212 314.339 460.28 311.721 462.898V521.17H292.323V440.594H304.182C306.695 440.594 308.344 441.772 309.13 444.128L310.465 450.49ZM401.086 440.594V521.17H381.609V440.594H401.086ZM403.756 417.113C403.756 418.788 403.416 420.359 402.735 421.825C402.054 423.291 401.138 424.573 399.986 425.673C398.887 426.772 397.578 427.662 396.06 428.343C394.541 428.971 392.918 429.286 391.19 429.286C389.515 429.286 387.918 428.971 386.4 428.343C384.934 427.662 383.651 426.772 382.552 425.673C381.452 424.573 380.562 423.291 379.882 421.825C379.253 420.359 378.939 418.788 378.939 417.113C378.939 415.385 379.253 413.762 379.882 412.244C380.562 410.725 381.452 409.416 382.552 408.317C383.651 407.217 384.934 406.354 386.4 405.725C387.918 405.045 389.515 404.704 391.19 404.704C392.918 404.704 394.541 405.045 396.06 405.725C397.578 406.354 398.887 407.217 399.986 408.317C401.138 409.416 402.054 410.725 402.735 412.244C403.416 413.762 403.756 415.385 403.756 417.113ZM478.584 457.636C478.008 458.369 477.432 458.945 476.856 459.364C476.333 459.783 475.548 459.992 474.5 459.992C473.506 459.992 472.537 459.704 471.595 459.128C470.652 458.5 469.527 457.82 468.218 457.087C466.909 456.301 465.338 455.621 463.506 455.045C461.726 454.416 459.5 454.102 456.83 454.102C453.427 454.102 450.443 454.731 447.877 455.987C445.312 457.191 443.165 458.945 441.438 461.249C439.762 463.553 438.506 466.354 437.668 469.652C436.83 472.898 436.411 476.589 436.411 480.725C436.411 485.019 436.856 488.841 437.746 492.191C438.689 495.542 440.024 498.369 441.752 500.673C443.479 502.924 445.574 504.652 448.034 505.856C450.495 507.008 453.27 507.584 456.359 507.584C459.448 507.584 461.935 507.218 463.82 506.485C465.757 505.699 467.38 504.862 468.689 503.971C469.998 503.029 471.123 502.191 472.066 501.458C473.061 500.673 474.16 500.28 475.364 500.28C476.935 500.28 478.113 500.882 478.898 502.087L484.474 509.155C482.328 511.668 479.998 513.788 477.485 515.516C474.972 517.191 472.354 518.553 469.631 519.6C466.961 520.595 464.186 521.301 461.307 521.72C458.479 522.139 455.652 522.348 452.825 522.348C447.851 522.348 443.165 521.432 438.767 519.6C434.369 517.715 430.521 514.992 427.223 511.432C423.924 507.872 421.307 503.526 419.369 498.396C417.485 493.212 416.542 487.322 416.542 480.725C416.542 474.809 417.38 469.338 419.055 464.312C420.783 459.233 423.296 454.861 426.595 451.197C429.893 447.479 433.977 444.573 438.846 442.479C443.715 440.385 449.317 439.338 455.652 439.338C461.673 439.338 466.935 440.306 471.438 442.244C475.993 444.181 480.076 446.956 483.689 450.568L478.584 457.636Z" fill="#103B66"/>
</svg>
