<svg width="1024" height="1024" viewBox="0 0 1024 1024" fill="none" xmlns="http://www.w3.org/2000/svg">
<g clip-path="url(#clip0_812_521)">
<path d="M40.8021 575.826L507.551 572.542C510.742 572.54 513.87 571.586 516.584 569.787C519.297 567.987 521.49 565.414 522.917 562.354L550.742 502.733C551.31 501.508 552.2 500.488 553.302 499.798C554.403 499.107 555.669 498.777 556.944 498.847C558.218 498.918 559.446 499.386 560.475 500.194C561.505 501.002 562.292 502.115 562.739 503.397L611.206 641.927C611.646 643.197 612.437 644.291 613.474 645.064C614.511 645.838 615.744 646.252 617.007 646.252C618.27 646.252 619.503 645.838 620.54 645.064C621.577 644.291 622.368 643.197 622.808 641.927L642.899 584.499C644.127 580.988 646.325 577.962 649.2 575.826C652.074 573.689 655.488 572.544 658.986 572.542H984.514" stroke="#68B9A8" stroke-width="23.0711" stroke-linecap="round" stroke-linejoin="round"/>
<path d="M660.439 489.61C665.7 489.61 670.328 488.913 674.321 487.518C678.378 486.124 681.77 484.19 684.495 481.718C687.284 479.182 689.376 476.171 690.771 472.685C692.165 469.199 692.863 465.363 692.863 461.18C692.863 452.495 690.169 445.713 684.781 440.832C679.456 435.951 671.342 433.51 660.439 433.51H638.569V489.61H660.439ZM660.439 418.962C669.06 418.962 676.54 419.976 682.879 422.005C689.281 423.97 694.574 426.791 698.758 430.467C702.942 434.144 706.048 438.581 708.076 443.779C710.168 448.977 711.214 454.777 711.214 461.18C711.214 467.519 710.105 473.319 707.886 478.58C705.667 483.842 702.403 488.374 698.092 492.177C693.845 495.981 688.552 498.96 682.213 501.115C675.938 503.207 668.68 504.253 660.439 504.253H638.569V555.219H620.218V418.962H660.439ZM779.668 511.86C771.871 512.113 765.215 512.747 759.7 513.762C754.248 514.712 749.779 515.98 746.293 517.565C742.87 519.15 740.366 521.02 738.781 523.175C737.26 525.33 736.499 527.739 736.499 530.401C736.499 532.937 736.911 535.124 737.735 536.962C738.559 538.801 739.669 540.322 741.063 541.526C742.521 542.667 744.201 543.523 746.103 544.094C748.068 544.601 750.16 544.854 752.378 544.854C755.358 544.854 758.083 544.569 760.556 543.999C763.028 543.365 765.342 542.477 767.497 541.336C769.715 540.195 771.807 538.832 773.772 537.247C775.801 535.663 777.766 533.856 779.668 531.828V511.86ZM724.994 472.495C730.319 467.36 736.055 463.525 742.204 460.99C748.353 458.454 755.167 457.186 762.647 457.186C768.036 457.186 772.822 458.074 777.005 459.849C781.189 461.623 784.707 464.096 787.56 467.265C790.412 470.435 792.567 474.27 794.025 478.77C795.483 483.271 796.212 488.215 796.212 493.604V555.219H788.701C787.053 555.219 785.785 554.965 784.897 554.458C784.01 553.887 783.313 552.81 782.805 551.225L780.904 542.097C778.368 544.442 775.896 546.534 773.487 548.372C771.078 550.147 768.543 551.669 765.88 552.936C763.218 554.141 760.365 555.06 757.323 555.694C754.343 556.391 751.015 556.74 747.339 556.74C743.599 556.74 740.081 556.233 736.784 555.219C733.488 554.141 730.604 552.556 728.132 550.464C725.723 548.372 723.79 545.742 722.332 542.572C720.937 539.339 720.24 535.536 720.24 531.162C720.24 527.359 721.286 523.714 723.377 520.227C725.469 516.678 728.861 513.54 733.552 510.814C738.242 508.088 744.36 505.87 751.903 504.158C759.446 502.383 768.701 501.369 779.668 501.115V493.604C779.668 486.124 778.051 480.482 774.818 476.679C771.585 472.812 766.863 470.878 760.651 470.878C756.467 470.878 752.949 471.417 750.096 472.495C747.307 473.509 744.867 474.682 742.775 476.013C740.746 477.281 738.971 478.453 737.45 479.531C735.992 480.545 734.534 481.052 733.076 481.052C731.935 481.052 730.953 480.767 730.128 480.197C729.304 479.563 728.607 478.802 728.037 477.915L724.994 472.495ZM878.094 474.777C877.333 476.171 876.16 476.869 874.576 476.869C873.625 476.869 872.547 476.52 871.343 475.823C870.138 475.125 868.649 474.365 866.874 473.541C865.162 472.653 863.102 471.861 860.693 471.164C858.284 470.403 855.432 470.023 852.136 470.023C849.283 470.023 846.716 470.403 844.434 471.164C842.152 471.861 840.187 472.843 838.538 474.111C836.954 475.379 835.718 476.869 834.83 478.58C834.006 480.228 833.594 482.035 833.594 484C833.594 486.472 834.291 488.532 835.686 490.181C837.144 491.829 839.046 493.255 841.391 494.459C843.736 495.664 846.399 496.741 849.378 497.692C852.357 498.58 855.4 499.562 858.506 500.64C861.676 501.654 864.75 502.795 867.729 504.063C870.709 505.331 873.371 506.915 875.717 508.817C878.062 510.719 879.932 513.064 881.327 515.853C882.784 518.579 883.513 521.875 883.513 525.742C883.513 530.18 882.721 534.3 881.136 538.103C879.552 541.843 877.206 545.108 874.1 547.897C870.994 550.623 867.191 552.778 862.69 554.363C858.189 555.947 852.991 556.74 847.096 556.74C840.377 556.74 834.291 555.662 828.84 553.507C823.388 551.288 818.761 548.467 814.957 545.044L818.951 538.579C819.458 537.755 820.06 537.121 820.758 536.677C821.455 536.233 822.342 536.011 823.42 536.011C824.561 536.011 825.765 536.455 827.033 537.343C828.301 538.23 829.822 539.213 831.597 540.29C833.436 541.368 835.654 542.35 838.253 543.238C840.852 544.125 844.085 544.569 847.952 544.569C851.248 544.569 854.132 544.157 856.605 543.333C859.077 542.445 861.137 541.273 862.785 539.815C864.433 538.357 865.638 536.677 866.398 534.775C867.222 532.874 867.634 530.845 867.634 528.69C867.634 526.028 866.905 523.841 865.447 522.129C864.053 520.354 862.183 518.864 859.837 517.66C857.492 516.392 854.798 515.315 851.755 514.427C848.776 513.476 845.701 512.494 842.532 511.48C839.426 510.465 836.351 509.324 833.309 508.056C830.329 506.725 827.667 505.077 825.322 503.112C822.976 501.147 821.075 498.738 819.617 495.886C818.222 492.97 817.525 489.452 817.525 485.331C817.525 481.655 818.285 478.137 819.807 474.777C821.328 471.354 823.547 468.374 826.463 465.839C829.379 463.24 832.96 461.18 837.207 459.658C841.454 458.137 846.304 457.376 851.755 457.376C858.094 457.376 863.768 458.391 868.775 460.419C873.847 462.384 878.22 465.11 881.897 468.596L878.094 474.777ZM960.364 474.777C959.604 476.171 958.431 476.869 956.846 476.869C955.895 476.869 954.818 476.52 953.613 475.823C952.409 475.125 950.919 474.365 949.144 473.541C947.433 472.653 945.373 471.861 942.964 471.164C940.555 470.403 937.702 470.023 934.406 470.023C931.554 470.023 928.986 470.403 926.704 471.164C924.422 471.861 922.457 472.843 920.809 474.111C919.224 475.379 917.988 476.869 917.101 478.58C916.277 480.228 915.865 482.035 915.865 484C915.865 486.472 916.562 488.532 917.956 490.181C919.414 491.829 921.316 493.255 923.662 494.459C926.007 495.664 928.669 496.741 931.649 497.692C934.628 498.58 937.671 499.562 940.777 500.64C943.946 501.654 947.021 502.795 950 504.063C952.979 505.331 955.642 506.915 957.987 508.817C960.333 510.719 962.203 513.064 963.597 515.853C965.055 518.579 965.784 521.875 965.784 525.742C965.784 530.18 964.992 534.3 963.407 538.103C961.822 541.843 959.477 545.108 956.371 547.897C953.265 550.623 949.461 552.778 944.96 554.363C940.46 555.947 935.262 556.74 929.367 556.74C922.647 556.74 916.562 555.662 911.11 553.507C905.659 551.288 901.031 548.467 897.228 545.044L901.222 538.579C901.729 537.755 902.331 537.121 903.028 536.677C903.725 536.233 904.613 536.011 905.691 536.011C906.832 536.011 908.036 536.455 909.304 537.343C910.572 538.23 912.093 539.213 913.868 540.29C915.706 541.368 917.925 542.35 920.524 543.238C923.123 544.125 926.356 544.569 930.222 544.569C933.519 544.569 936.403 544.157 938.875 543.333C941.347 542.445 943.407 541.273 945.056 539.815C946.704 538.357 947.908 536.677 948.669 534.775C949.493 532.874 949.905 530.845 949.905 528.69C949.905 526.028 949.176 523.841 947.718 522.129C946.323 520.354 944.453 518.864 942.108 517.66C939.763 516.392 937.068 515.315 934.026 514.427C931.046 513.476 927.972 512.494 924.803 511.48C921.696 510.465 918.622 509.324 915.579 508.056C912.6 506.725 909.938 505.077 907.592 503.112C905.247 501.147 903.345 498.738 901.887 495.886C900.493 492.97 899.795 489.452 899.795 485.331C899.795 481.655 900.556 478.137 902.077 474.777C903.599 471.354 905.817 468.374 908.733 465.839C911.649 463.24 915.231 461.18 919.478 459.658C923.725 458.137 928.574 457.376 934.026 457.376C940.365 457.376 946.038 458.391 951.046 460.419C956.117 462.384 960.491 465.11 964.168 468.596L960.364 474.777Z" fill="#103B66"/>
<path d="M138.386 523.472C139.811 523.472 141.073 524.023 142.173 525.123L152.467 536.291C146.77 543.347 139.746 548.753 131.395 552.508C123.108 556.262 113.138 558.14 101.485 558.14C91.0624 558.14 81.6753 556.36 73.3241 552.799C65.0375 549.238 57.9487 544.286 52.0575 537.941C46.1663 531.597 41.6346 524.023 38.4624 515.218C35.3549 506.414 33.8012 496.8 33.8012 486.377C33.8012 475.825 35.4844 466.179 38.8508 457.439C42.2172 448.635 46.9431 441.06 53.0285 434.716C59.1787 428.371 66.4942 423.451 74.9749 419.955C83.4557 416.395 92.8427 414.615 103.136 414.615C113.365 414.615 122.428 416.298 130.326 419.664C138.289 423.031 145.054 427.433 150.622 432.871L141.882 445.009C141.364 445.786 140.685 446.466 139.843 447.049C139.066 447.631 137.965 447.923 136.541 447.923C135.57 447.923 134.567 447.664 133.531 447.146C132.495 446.563 131.362 445.883 130.132 445.106C128.902 444.265 127.478 443.358 125.859 442.387C124.241 441.416 122.364 440.542 120.227 439.765C118.091 438.924 115.598 438.244 112.75 437.726C109.966 437.144 106.729 436.852 103.039 436.852C96.7594 436.852 90.9977 437.985 85.7539 440.251C80.5748 442.452 76.1078 445.689 72.353 449.962C68.5982 454.17 65.6849 459.349 63.6133 465.499C61.5417 471.584 60.5058 478.544 60.5058 486.377C60.5058 494.275 61.6064 501.299 63.8075 507.45C66.0734 513.6 69.1161 518.779 72.9356 522.987C76.7552 527.195 81.2545 530.432 86.4336 532.698C91.6127 534.899 97.1802 535.999 103.136 535.999C106.697 535.999 109.901 535.805 112.75 535.417C115.663 535.028 118.317 534.413 120.713 533.572C123.173 532.73 125.471 531.662 127.607 530.367C129.808 529.008 131.977 527.357 134.114 525.415C134.761 524.832 135.441 524.379 136.153 524.055C136.865 523.667 137.609 523.472 138.386 523.472ZM190.85 412.284V556.586H166.865V412.284H190.85ZM239.607 456.954V556.586H215.525V456.954H239.607ZM242.909 427.918C242.909 429.99 242.488 431.932 241.647 433.745C240.805 435.557 239.672 437.144 238.248 438.503C236.888 439.863 235.27 440.963 233.393 441.805C231.515 442.582 229.508 442.97 227.372 442.97C225.3 442.97 223.326 442.582 221.448 441.805C219.636 440.963 218.05 439.863 216.69 438.503C215.331 437.144 214.23 435.557 213.388 433.745C212.612 431.932 212.223 429.99 212.223 427.918C212.223 425.782 212.612 423.775 213.388 421.898C214.23 420.02 215.331 418.402 216.69 417.042C218.05 415.683 219.636 414.615 221.448 413.838C223.326 412.996 225.3 412.575 227.372 412.575C229.508 412.575 231.515 412.996 233.393 413.838C235.27 414.615 236.888 415.683 238.248 417.042C239.672 418.402 240.805 420.02 241.647 421.898C242.488 423.775 242.909 425.782 242.909 427.918ZM286.492 469.189C288.499 467.182 290.603 465.337 292.804 463.654C295.07 461.906 297.433 460.449 299.893 459.284C302.418 458.054 305.105 457.115 307.953 456.468C310.802 455.756 313.909 455.4 317.276 455.4C322.714 455.4 327.537 456.339 331.745 458.216C335.953 460.029 339.448 462.618 342.232 465.985C345.081 469.286 347.217 473.268 348.641 477.929C350.13 482.525 350.875 487.607 350.875 493.175V556.586H326.889V493.175C326.889 487.089 325.497 482.396 322.714 479.094C319.93 475.728 315.689 474.045 309.992 474.045C305.849 474.045 301.965 474.983 298.339 476.861C294.714 478.738 291.283 481.295 288.046 484.532V556.586H264.06V456.954H278.724C281.831 456.954 283.87 458.41 284.842 461.323L286.492 469.189ZM398.546 456.954V556.586H374.463V456.954H398.546ZM401.847 427.918C401.847 429.99 401.426 431.932 400.585 433.745C399.743 435.557 398.61 437.144 397.186 438.503C395.827 439.863 394.208 440.963 392.331 441.805C390.453 442.582 388.446 442.97 386.31 442.97C384.238 442.97 382.264 442.582 380.386 441.805C378.574 440.963 376.988 439.863 375.628 438.503C374.269 437.144 373.168 435.557 372.327 433.745C371.55 431.932 371.161 429.99 371.161 427.918C371.161 425.782 371.55 423.775 372.327 421.898C373.168 420.02 374.269 418.402 375.628 417.042C376.988 415.683 378.574 414.615 380.386 413.838C382.264 412.996 384.238 412.575 386.31 412.575C388.446 412.575 390.453 412.996 392.331 413.838C394.208 414.615 395.827 415.683 397.186 417.042C398.61 418.402 399.743 420.02 400.585 421.898C401.426 423.775 401.847 425.782 401.847 427.918ZM494.373 478.026C493.661 478.932 492.949 479.644 492.236 480.162C491.589 480.68 490.618 480.939 489.323 480.939C488.093 480.939 486.895 480.583 485.73 479.871C484.565 479.094 483.173 478.253 481.555 477.346C479.936 476.375 477.994 475.533 475.728 474.821C473.527 474.045 470.776 473.656 467.474 473.656C463.266 473.656 459.576 474.433 456.404 475.987C453.231 477.476 450.577 479.644 448.441 482.493C446.369 485.341 444.815 488.805 443.78 492.883C442.744 496.897 442.226 501.461 442.226 506.576C442.226 511.884 442.776 516.61 443.877 520.753C445.042 524.897 446.693 528.392 448.829 531.241C450.966 534.025 453.555 536.161 456.598 537.65C459.641 539.074 463.072 539.786 466.891 539.786C470.711 539.786 473.786 539.333 476.117 538.427C478.512 537.456 480.519 536.42 482.137 535.32C483.756 534.154 485.148 533.118 486.313 532.212C487.543 531.241 488.902 530.755 490.391 530.755C492.334 530.755 493.79 531.5 494.761 532.989L501.656 541.729C499.002 544.836 496.121 547.458 493.013 549.594C489.906 551.666 486.669 553.349 483.303 554.644C480.001 555.874 476.57 556.748 473.009 557.266C469.513 557.784 466.017 558.043 462.521 558.043C456.371 558.043 450.577 556.91 445.139 554.644C439.701 552.313 434.943 548.947 430.864 544.545C426.786 540.143 423.549 534.769 421.154 528.425C418.823 522.016 417.658 514.733 417.658 506.576C417.658 499.26 418.693 492.495 420.765 486.28C422.901 480 426.009 474.595 430.087 470.063C434.166 465.467 439.216 461.874 445.236 459.284C451.257 456.695 458.184 455.4 466.017 455.4C473.462 455.4 479.968 456.597 485.536 458.993C491.168 461.388 496.218 464.819 500.685 469.286L494.373 478.026Z" fill="#103B66"/>
</g>
<defs>
<clipPath id="clip0_812_521">
<rect width="1024" height="294.828" fill="white" transform="translate(0 364.586)"/>
</clipPath>
</defs>
</svg>
